<?xml version="1.0" encoding="utf-8"?>
<!-- Generator: Adobe Illustrator 25.2.0, SVG Export Plug-In . SVG Version: 6.00 Build 0)  -->
<svg version="1.1" id="Layer_1" xmlns="http://www.w3.org/2000/svg" xmlns:xlink="http://www.w3.org/1999/xlink" x="0px" y="0px"
	 viewBox="0 0 560.57 191.08" style="enable-background:new 0 0 560.57 191.08;" xml:space="preserve">
<style type="text/css">
	.st0{fill-rule:evenodd;clip-rule:evenodd;fill:#CE181E;}
	.st1{fill-rule:evenodd;clip-rule:evenodd;fill:#005F98;}
	.st2{fill-rule:evenodd;clip-rule:evenodd;fill:#E3E4E5;}
	.st3{fill:#58595B;}
</style>
<g>
	<path class="st0" d="M167.78,31.55c-14.75-15-33.82-24.02-53.77-26.39C75.37,1.26,47.65,29.76,42,64.09
		C48.98,44.1,70.26,30.68,91.99,27.9c21.53-2.83,43.05,5.4,57.22,21.86C161.26,63.84,182.2,46.26,167.78,31.55z"/>
	<path class="st1" d="M180.66,54.45c-5.03,0-9.14,4.11-9.14,9.18c0,5.03,4.11,9.14,9.14,9.14c5.07,0,9.18-4.11,9.18-9.14
		C189.85,58.56,185.73,54.45,180.66,54.45z"/>
</g>
<path class="st2" d="M114.01,5.17C81.14,2.43,51.64,30.6,42,64.09c-2.16,7.44-3.32,15.17-3.32,22.86
	c-0.04,42.3,32.16,78.91,74.09,81.98c-48.95-1.25-79.32-37.23-82.48-81.4c-3.32-45.58,38.73-87.88,83.69-82.4
	C114.01,5.13,114.01,5.17,114.01,5.17L114.01,5.17z"/>
<path class="st1" d="M113.97,5.13C70.84,0.3,34.27,42.15,33.94,86.45c-0.33,44.25,34.66,81.36,78.83,82.48
	C56.54,172.71,1.69,128.21,16.7,68.83c7.4-24.39,24.89-45.08,48.99-56.14C81.14,5.62,97.85,3.21,113.97,5.13L113.97,5.13z"/>
<path class="st2" d="M16.7,68.83c-12.26,53.48,40.14,98.98,96.07,100.1c22.27,0.46,45.17-6.19,64.7-22.19
	C121.99,209.19-9.19,174.54,16.7,68.83L16.7,68.83z"/>
<path class="st1" d="M16.7,68.83c-22.27,89.38,103.18,135.38,160.77,77.91c-21.86,31.25-60.92,45.46-97.73,35.53
	c-36.77-9.93-63.41-41.84-66.57-79.87C12.21,90.85,13.5,79.51,16.7,68.83L16.7,68.83z"/>
<g>
	<g>
		<path class="st1" d="M136.62,43.65c-12.47-9.39-28.34-13.67-44.13-11.64c-19.2,2.49-39.81,14.3-46.54,33.37
			c-0.33,1.21-0.67,2.45-0.96,3.7c12.59-23.14,39.72-27.8,61.62-14.46c10.39,6.32,13.88-2.41,4.78-6.81
			c-6.27-3.03-5.86-8.89,3.03-6.07c5.94,1.91,11.01,5.69,16.12,9.27C136.08,54.86,141.4,47.63,136.62,43.65z"/>
		<path class="st0" d="M124.69,57.02c-2.45,0-4.49,2-4.49,4.49c0,2.45,2.04,4.49,4.49,4.49c2.49,0,4.49-2.04,4.49-4.49
			C129.18,59.02,127.19,57.02,124.69,57.02z"/>
		<path class="st2" d="M145.8,55.24c-3.49,0-6.36,2.87-6.36,6.4c0,3.53,2.87,6.36,6.36,6.36c3.53,0,6.4-2.83,6.4-6.36
			C152.2,58.11,149.33,55.24,145.8,55.24z"/>
	</g>
</g>
<g>
	<g>
		<path class="st3" d="M160.64,110.03c0-16.23,9.56-26.13,22.34-26.13c6.11,0,10.9,2.97,13.84,6.21l-3.51,4.17
			c-2.65-2.83-5.97-4.75-10.22-4.75c-9.51,0-15.83,7.79-15.83,20.33c0,12.65,6.04,20.58,15.58,20.58c4.8,0,8.45-2.09,11.67-5.65
			l3.51,4.02c-3.98,4.62-8.9,7.27-15.44,7.27C170.04,136.07,160.64,126.38,160.64,110.03z"/>
		<path class="st3" d="M204,116.56c0-12.44,8.14-19.61,17.27-19.61s17.27,7.17,17.27,19.61c0,12.34-8.14,19.51-17.27,19.51
			S204,128.91,204,116.56z M232.03,116.56c0-8.54-4.34-14.36-10.76-14.36s-10.76,5.81-10.76,14.36c0,8.54,4.35,14.26,10.76,14.26
			S232.03,125.1,232.03,116.56z"/>
		<path class="st3" d="M247.83,121.5V97.87h6.31v22.81c0,6.94,2.1,9.92,7.03,9.92c3.81,0,6.45-1.89,9.98-6.28V97.87h6.31v37.28
			h-5.21l-0.53-5.84h-0.21c-3.46,4.07-7.18,6.76-12.3,6.76C251.36,136.07,247.83,131,247.83,121.5z"/>
		<path class="st3" d="M290.05,97.87h5.21l0.53,6.79H296c2.6-4.73,6.41-7.71,10.6-7.71c1.65,0,2.81,0.21,3.98,0.77l-1.18,5.53
			c-1.28-0.4-2.12-0.61-3.62-0.61c-3.15,0-6.91,2.27-9.43,8.57v23.94h-6.31V97.87z"/>
		<path class="st3" d="M312.52,130.9l3.11-4.15c3.24,2.61,6.53,4.42,11,4.42c4.89,0,7.32-2.61,7.32-5.79c0-3.84-4.4-5.53-8.53-7.07
			c-5.22-1.91-11.12-4.48-11.12-10.77c0-5.96,4.78-10.58,12.86-10.58c4.64,0,8.7,1.9,11.59,4.19l-3.02,4.04
			c-2.57-1.9-5.2-3.32-8.5-3.32c-4.7,0-6.86,2.5-6.86,5.35c0,3.54,4.05,4.89,8.28,6.47c5.38,2.03,11.37,4.21,11.37,11.31
			c0,6.05-4.8,11.08-13.6,11.08C321.13,136.07,316.02,133.83,312.52,130.9z"/>
		<path class="st3" d="M346.02,116.56c0-12.13,8.18-19.61,16.76-19.61c9.51,0,14.88,6.83,14.88,17.49c0,1.33-0.11,2.66-0.29,3.58
			h-25.1c0.45,7.9,5.28,13.02,12.39,13.02c3.58,0,6.52-1.15,9.28-2.98l2.26,4.14c-3.27,2.14-7.24,3.87-12.31,3.87
			C353.93,136.07,346.02,128.81,346.02,116.56z M372.08,113.51c0-7.47-3.36-11.53-9.19-11.53c-5.24,0-9.92,4.21-10.69,11.53H372.08z
			"/>
		<path class="st3" d="M382.27,84.82h6.62l5.28,27.4c0.97,5.41,1.97,10.82,2.95,16.23h0.31c1.11-5.41,2.33-10.85,3.54-16.23
			l6.98-27.4h5.81l6.98,27.4c1.21,5.32,2.42,10.79,3.63,16.23h0.31c0.97-5.44,1.88-10.87,2.85-16.23l5.28-27.4h6.18l-10.42,50.33
			h-7.7l-7.62-30.26c-0.86-3.93-1.67-7.59-2.42-11.46h-0.31c-0.78,3.88-1.66,7.53-2.52,11.46l-7.46,30.26h-7.59L382.27,84.82z"/>
		<path class="st3" d="M444.79,125.48c0-8.12,7.01-12.18,22.9-13.91c-0.02-4.8-1.61-9.42-7.69-9.42c-4.31,0-8.2,2.04-11.12,4
			l-2.47-4.32c3.43-2.25,8.66-4.87,14.64-4.87c9.1,0,12.95,6.05,12.95,15.33v22.87h-5.21l-0.53-4.46h-0.21
			c-3.55,2.95-7.7,5.38-12.33,5.38C449.47,136.07,444.79,132.2,444.79,125.48z M467.68,126.06V115.7
			c-12.49,1.5-16.72,4.56-16.72,9.33c0,4.24,2.88,5.96,6.53,5.96C461.1,130.99,464.07,129.24,467.68,126.06z"/>
		<path class="st3" d="M480.38,97.87h6.5l7.05,21.18c1.11,3.64,2.33,7.44,3.44,10.99h0.31c1.11-3.56,2.33-7.35,3.44-10.99
			l7.05-21.18h6.18l-13.18,37.28h-7.33L480.38,97.87z"/>
		<path class="st3" d="M518.79,116.56c0-12.13,8.18-19.61,16.76-19.61c9.51,0,14.88,6.83,14.88,17.49c0,1.33-0.11,2.66-0.29,3.58
			h-25.1c0.45,7.9,5.28,13.02,12.39,13.02c3.58,0,6.52-1.15,9.28-2.98l2.26,4.14c-3.27,2.14-7.24,3.87-12.31,3.87
			C526.7,136.07,518.79,128.81,518.79,116.56z M544.85,113.51c0-7.47-3.36-11.53-9.19-11.53c-5.24,0-9.92,4.21-10.69,11.53H544.85z"
			/>
	</g>
</g>
<g>
	<path class="st0" d="M109.68,148.92c-4.1-1.39-5.84,4.05-1.51,5.09c1.22,0.28,2.46,0.58,3.68,0.83c3.26,0.7,2.79,4.31-0.78,3.9
		c-4.69-0.54-9.25-1.88-13.52-3.92c-6.55-3.17-10,5.3-3.23,7.8c10.93,4.03,33.34,3.14,46.21-0.49c12.53-3.54,27.11-10.12,33.73-18
		C160.37,155.64,126.82,154.92,109.68,148.92z"/>
	<path class="st2" d="M85.93,146.13c-2.28-0.26-4.37,1.4-4.63,3.67c-0.26,2.28,1.4,4.34,3.67,4.6c2.28,0.26,4.34-1.37,4.6-3.65
		C89.84,148.48,88.21,146.39,85.93,146.13z"/>
	<path class="st1" d="M99.59,147.95c1.63,0.19,3.1-0.97,3.29-2.61c0.19-1.63-0.97-3.1-2.61-3.28c-1.63-0.19-3.1,0.97-3.29,2.6
		C96.79,146.3,97.95,147.76,99.59,147.95z"/>
</g>
</svg>
